<?xml version="1.0" encoding="UTF-8" standalone="no"?>
<!-- Created with Inkscape (http://www.inkscape.org/) -->

<svg
   version="1.1"
   id="svg1"
   width="1276.3066"
   height="736.70667"
   viewBox="0 0 1276.3066 736.70667"
   sodipodi:docname="Casa Leven_color.eps"
   xmlns:inkscape="http://www.inkscape.org/namespaces/inkscape"
   xmlns:sodipodi="http://sodipodi.sourceforge.net/DTD/sodipodi-0.dtd"
   xmlns="http://www.w3.org/2000/svg"
   xmlns:svg="http://www.w3.org/2000/svg">
  <defs
     id="defs1" />
  <sodipodi:namedview
     id="namedview1"
     pagecolor="#ffffff"
     bordercolor="#000000"
     borderopacity="0.25"
     inkscape:showpageshadow="2"
     inkscape:pageopacity="0.0"
     inkscape:pagecheckerboard="0"
     inkscape:deskcolor="#d1d1d1">
    <inkscape:page
       x="0"
       y="0"
       inkscape:label="1"
       id="page1"
       width="1276.3066"
       height="736.70667"
       margin="0"
       bleed="0" />
  </sodipodi:namedview>
  <g
     id="g1"
     inkscape:groupmode="layer"
     inkscape:label="1">
    <g
       id="group-R5">
      <path
         id="path2"
         d="m 1824.1,108.52 -105.49,385.8 h 47.48 l 80.62,-314.23 h 3.77 l 82.13,314.23 h 52.74 l 82.15,-314.23 h 3.75 l 80.63,314.23 h 47.48 l -105.49,-385.8 h -48.23 l -85.15,307.429 h -3.01 L 1872.33,108.52 h -48.23"
         style="fill:#2e2735;fill-opacity:1;fill-rule:nonzero;stroke:none"
         transform="matrix(0.13333333,0,0,-0.13333333,0,736.70667)" />
      <path
         id="path3"
         d="m 2335.59,276.539 c 0.8,13.5 4.1,26.102 10.1,38 6.9,14 16.7,25.301 29.6,34.102 12.9,8.699 28.2,13.101 45.9,13.101 16.1,0 30,-3.703 41.9,-11.203 11.9,-7.398 21,-17.5 27.5,-30.297 6.5,-12.801 9.7,-27.402 9.7,-43.703 z m 209.9,-19.598 c 0,27 -3.6,49.7 -10.7,68.2 -7.2,18.5 -16.8,33.3 -28.8,44.601 -12.1,11.199 -25.5,19.297 -40.2,24.399 -14.7,5 -29.5,7.5 -44.6,7.5 -26.1,0 -49,-6.399 -68.5,-19.102 -19.5,-12.797 -34.7,-30.5 -45.6,-53.199 -10.8,-22.598 -16.3,-48.801 -16.3,-78.399 0,-29.699 5.5,-55.601 16.3,-77.902 10.9,-22.297 26.4,-39.598 46.6,-52 20.1,-12.398 44.1,-18.5 72,-18.5 19.6,0 37.2,3 52.9,9.102 15.7,6.101 28.9,14.601 39.6,25.601 10.7,11 18.3,23.797 22.8,38.297 l -43,12.102 c -3.7,-10.102 -9.1,-18.399 -16,-25.2 -6.9,-6.699 -15.1,-11.699 -24.6,-15 -9.4,-3.402 -20,-5 -31.7,-5 -17.9,0 -33.7,3.899 -47.3,11.801 -13.5,7.797 -24.1,19.297 -31.7,34.399 -6.9,13.8 -10.7,30.3 -11.2,49.5 h 210 v 18.8"
         style="fill:#2e2735;fill-opacity:1;fill-rule:nonzero;stroke:none"
         transform="matrix(0.13333333,0,0,-0.13333333,0,736.70667)" />
      <path
         id="path4"
         d="m 2710.84,494.32 v -385.8 h -44.47 v 385.8 h 44.47"
         style="fill:#2e2735;fill-opacity:1;fill-rule:nonzero;stroke:none"
         transform="matrix(0.13333333,0,0,-0.13333333,0,736.70667)" />
      <path
         id="path5"
         d="m 2889.72,494.32 v -385.8 h -44.47 v 385.8 h 44.47"
         style="fill:#2e2735;fill-opacity:1;fill-rule:nonzero;stroke:none"
         transform="matrix(0.13333333,0,0,-0.13333333,0,736.70667)" />
      <path
         id="path6"
         d="M 3068.6,282.59 V 108.52 h -44.47 v 289.351 h 42.96 v -45.23 h 3.77 c 6.78,14.699 17.08,26.55 30.89,35.531 13.82,8.98 31.64,13.469 53.5,13.469 19.59,0 36.73,-4.012 51.43,-11.969 14.69,-7.961 26.11,-20.031 34.29,-36.16 8.15,-16.141 12.24,-36.52 12.24,-61.133 V 108.52 h -44.47 v 180.839 c 0,22.723 -5.9,40.473 -17.71,53.223 -11.79,12.75 -28,19.129 -48.6,19.129 -14.19,0 -26.83,-3.082 -37.95,-9.25 -11.11,-6.141 -19.88,-15.121 -26.27,-26.941 -6.41,-11.801 -9.61,-26.11 -9.61,-42.93"
         style="fill:#2e2735;fill-opacity:1;fill-rule:nonzero;stroke:none"
         transform="matrix(0.13333333,0,0,-0.13333333,0,736.70667)" />
      <path
         id="path7"
         d="m 3418.79,276.539 c 0.8,13.5 4.2,26.102 10.1,38 6.9,14 16.8,25.301 29.7,34.102 12.8,8.699 28.1,13.101 45.8,13.101 16.1,0 30.1,-3.703 42,-11.203 11.8,-7.398 21,-17.5 27.4,-30.297 6.5,-12.801 9.8,-27.402 9.8,-43.703 z m 210,-19.598 c 0,27 -3.6,49.7 -10.8,68.2 -7.1,18.5 -16.7,33.3 -28.8,44.601 -12,11.199 -25.4,19.297 -40.1,24.399 -14.7,5 -29.6,7.5 -44.7,7.5 -26.1,0 -48.9,-6.399 -68.4,-19.102 -19.6,-12.797 -34.8,-30.5 -45.6,-53.199 -10.9,-22.598 -16.3,-48.801 -16.3,-78.399 0,-29.699 5.4,-55.601 16.3,-77.902 10.8,-22.297 26.3,-39.598 46.5,-52 20.2,-12.398 44.2,-18.5 72.1,-18.5 19.6,0 37.2,3 52.9,9.102 15.7,6.101 28.9,14.601 39.5,25.601 10.7,11 18.3,23.797 22.8,38.297 l -42.9,12.102 c -3.8,-10.102 -9.1,-18.399 -16,-25.2 -6.9,-6.699 -15.1,-11.699 -24.6,-15 -9.5,-3.402 -20.1,-5 -31.7,-5 -18,0 -33.8,3.899 -47.3,11.801 -13.6,7.797 -24.2,19.297 -31.8,34.399 -6.9,13.8 -10.7,30.3 -11.2,49.5 h 210.1 v 18.8"
         style="fill:#2e2735;fill-opacity:1;fill-rule:nonzero;stroke:none"
         transform="matrix(0.13333333,0,0,-0.13333333,0,736.70667)" />
      <path
         id="path8"
         d="m 3954.57,333.063 -39.95,-11.313 c -2.5,6.672 -6.18,13.172 -11.02,19.512 -4.83,6.347 -11.39,11.59 -19.68,15.718 -8.29,4.161 -18.9,6.231 -31.83,6.231 -17.71,0 -32.44,-4.039 -44.17,-12.16 -11.75,-8.11 -17.62,-18.379 -17.62,-30.801 0,-11.051 4.01,-19.789 12.05,-26.191 8.04,-6.407 20.59,-11.739 37.69,-15.989 l 42.94,-10.57 c 25.86,-6.281 45.14,-15.859 57.83,-28.73 12.68,-12.879 19.03,-29.399 19.03,-49.641 0,-16.547 -4.75,-31.399 -14.22,-44.449 -9.49,-13.051 -22.71,-23.348 -39.65,-30.899 -16.96,-7.539 -36.69,-11.281 -59.15,-11.281 -29.52,0 -53.95,6.402 -73.29,19.191 -19.33,12.809 -31.58,31.52 -36.73,56.161 l 42.2,10.527 c 4.01,-15.559 11.64,-27.238 22.88,-35.02 11.24,-7.777 25.97,-11.679 44.17,-11.679 20.73,0 37.21,4.402 49.46,13.269 12.24,8.864 18.36,19.481 18.36,31.942 0,10.031 -3.52,18.468 -10.55,25.32 -7.03,6.859 -17.83,11.98 -32.39,15.359 l -48.23,11.309 c -26.5,6.262 -45.93,16.019 -58.31,29.281 -12.36,13.262 -18.55,29.879 -18.55,49.84 0,16.32 4.61,30.75 13.85,43.32 9.23,12.539 21.85,22.422 37.87,29.582 16,7.149 34.18,10.739 54.53,10.739 28.63,0 51.14,-6.282 67.53,-18.86 16.39,-12.539 28.03,-29.121 34.95,-49.718"
         style="fill:#2e2735;fill-opacity:1;fill-rule:nonzero;stroke:none"
         transform="matrix(0.13333333,0,0,-0.13333333,0,736.70667)" />
      <path
         id="path9"
         d="m 4284.91,333.063 -39.95,-11.313 c -2.5,6.672 -6.18,13.172 -11.02,19.512 -4.83,6.347 -11.39,11.59 -19.68,15.718 -8.29,4.161 -18.9,6.231 -31.84,6.231 -17.7,0 -32.43,-4.039 -44.17,-12.16 -11.75,-8.11 -17.61,-18.379 -17.61,-30.801 0,-11.051 4.01,-19.789 12.05,-26.191 8.03,-6.407 20.59,-11.739 37.68,-15.989 l 42.95,-10.57 c 25.86,-6.281 45.14,-15.859 57.83,-28.73 12.68,-12.879 19.03,-29.399 19.03,-49.641 0,-16.547 -4.75,-31.399 -14.22,-44.449 -9.49,-13.051 -22.71,-23.348 -39.65,-30.899 -16.96,-7.539 -36.69,-11.281 -59.16,-11.281 -29.51,0 -53.94,6.402 -73.28,19.191 -19.34,12.809 -31.58,31.52 -36.73,56.161 l 42.2,10.527 c 4.01,-15.559 11.64,-27.238 22.88,-35.02 11.24,-7.777 25.97,-11.679 44.17,-11.679 20.73,0 37.21,4.402 49.46,13.269 12.24,8.864 18.36,19.481 18.36,31.942 0,10.031 -3.52,18.468 -10.55,25.32 -7.04,6.859 -17.83,11.98 -32.39,15.359 l -48.23,11.309 c -26.51,6.262 -45.93,16.019 -58.31,29.281 -12.37,13.262 -18.55,29.879 -18.55,49.84 0,16.32 4.61,30.75 13.85,43.32 9.23,12.539 21.85,22.422 37.87,29.582 16,7.149 34.18,10.739 54.52,10.739 28.64,0 51.15,-6.282 67.54,-18.86 16.39,-12.539 28.03,-29.121 34.95,-49.718"
         style="fill:#2e2735;fill-opacity:1;fill-rule:nonzero;stroke:none"
         transform="matrix(0.13333333,0,0,-0.13333333,0,736.70667)" />
      <path
         id="path10"
         d="m 4762.89,151.742 c -13.8,-6.203 -28,-9.301 -42.6,-9.301 -15.3,0 -28.7,3.2 -40.1,9.598 -11.5,6.402 -20.3,14.801 -26.6,25.203 -6.3,10.5 -9.4,21.699 -9.4,33.699 0,5.301 3.1,14 9.2,26.098 6.2,12 17.9,24.402 35.2,37.301 l 14.3,10.601 0.1,-0.101 92.2,-111.301 c -9.9,-9.297 -20.6,-16.598 -32.3,-21.797 z m -87.8,258.199 c 0,8 2.1,15.801 6.3,23.399 4.2,7.601 10,13.902 17.5,18.902 7.5,4.899 16.1,7.399 25.9,7.399 14,0 25.2,-4.602 33.8,-13.801 8.6,-9.098 12.9,-18.598 12.9,-28.399 0,-13.199 -3.3,-23.902 -9.9,-32 -6.6,-8.199 -15.3,-15.8 -26.2,-23 l -25.3,-18.8 c -2.9,3.601 -5.8,7.101 -8.6,10.601 -7.7,9.598 -14,19.098 -19,28.297 -4.9,9.203 -7.4,18.301 -7.4,27.402 z m 174,-236 c 0.7,0.801 1.4,1.7 2.1,2.598 7.4,9.102 14.1,21.801 20,38 5.9,16.203 8.8,37.203 8.8,62.703 h -42.9 c 0,-20.703 -3.3,-39.301 -9.9,-55.902 -1.8,-4.598 -3.9,-9.098 -6.1,-13.301 l -83.9,102.5 28.3,21 c 15.8,11.703 28.3,24.301 37.5,37.902 9.2,13.598 13.7,29.598 13.7,48 0,14.301 -3.7,27.598 -11.3,39.899 -7.5,12.199 -18.2,22 -32.2,29.5 -13.9,7.5 -30.6,11.301 -49.9,11.301 -18.8,0 -35.3,-3.7 -49.2,-11.102 -14.1,-7.297 -24.9,-17.598 -32.6,-30.699 -7.8,-13.098 -11.6,-28.301 -11.6,-45.699 0,-15 3.2,-29.102 9.8,-42 6.5,-12.899 15.3,-26 26.3,-39.399 3,-3.601 6.1,-7.402 9.3,-11.203 -14.1,-9.898 -26.6,-19.598 -37.6,-29.297 -12.1,-10.801 -21.6,-22.402 -28.5,-34.902 -6.8,-12.5 -10.2,-26.801 -10.2,-42.899 0,-20.8 4.9,-39.3 14.9,-55.5 9.9,-16.199 24,-29 42.3,-38.3 18.4,-9.301 40.2,-13.899 65.6,-13.899 18.5,0 37.2,3.399 56.1,10.297 17.5,6.301 32.1,15.5 44,27.801 l 27.2,-32.801 h 53.5 l -53.5,65.402"
         style="fill:#2e2735;fill-opacity:1;fill-rule:nonzero;stroke:none"
         transform="matrix(0.13333333,0,0,-0.13333333,0,736.70667)" />
      <path
         id="path11"
         d="m 5259.69,452.84 h 82.1 c 20.8,0 37.6,-3.199 50.3,-9.5 12.7,-6.301 21.9,-15.301 27.7,-26.801 5.8,-11.598 8.6,-25.098 8.6,-40.5 0,-15.5 -2.8,-28.797 -8.5,-39.898 -5.7,-11.102 -14.9,-19.7 -27.5,-25.7 -12.6,-6 -29.3,-9 -49.9,-9 h -82.8 z m 142.6,-185.199 c 5.5,1.898 10.6,4.101 15.4,6.601 19.2,9.899 33.5,23.699 42.8,41.297 9.3,17.602 13.9,37.703 13.9,60.5 0,22.703 -4.6,43 -13.9,60.801 -9.3,17.801 -23.6,31.902 -43,42.101 -19.3,10.301 -44.1,15.399 -74.2,15.399 h -130.4 V 108.539 h 46.8 v 150.703 h 84.4 c 3.3,0 6.6,0.098 9.8,0.199 l 81.3,-150.902 h 54.3 l -87.2,159.102"
         style="fill:#2e2735;fill-opacity:1;fill-rule:nonzero;stroke:none"
         transform="matrix(0.13333333,0,0,-0.13333333,0,736.70667)" />
      <path
         id="path12"
         d="m 5630.19,276.539 c 0.8,13.5 4.2,26.102 10.1,38 6.9,14 16.8,25.301 29.6,34.102 12.9,8.699 28.2,13.101 45.9,13.101 16.1,0 30.1,-3.703 41.9,-11.203 11.9,-7.398 21.1,-17.5 27.5,-30.297 6.5,-12.801 9.7,-27.402 9.7,-43.703 z m 209.9,-19.598 c 0,27 -3.5,49.7 -10.7,68.2 -7.2,18.5 -16.8,33.3 -28.8,44.601 -12.1,11.199 -25.4,19.297 -40.1,24.399 -14.7,5 -29.6,7.5 -44.7,7.5 -26.1,0 -48.9,-6.399 -68.5,-19.102 -19.5,-12.797 -34.7,-30.5 -45.5,-53.199 -10.9,-22.598 -16.3,-48.801 -16.3,-78.399 0,-29.699 5.4,-55.601 16.3,-77.902 10.8,-22.297 26.3,-39.598 46.5,-52 20.1,-12.398 44.2,-18.5 72,-18.5 19.6,0 37.3,3 53,9.102 15.7,6.101 28.9,14.601 39.5,25.601 10.7,11 18.3,23.797 22.8,38.297 l -42.9,12.102 c -3.8,-10.102 -9.1,-18.399 -16,-25.2 -6.9,-6.699 -15.1,-11.699 -24.6,-15 -9.5,-3.402 -20.1,-5 -31.8,-5 -17.9,0 -33.7,3.899 -47.2,11.801 -13.6,7.797 -24.2,19.297 -31.8,34.399 -6.9,13.8 -10.7,30.3 -11.2,49.5 h 210 v 18.8"
         style="fill:#2e2735;fill-opacity:1;fill-rule:nonzero;stroke:none"
         transform="matrix(0.13333333,0,0,-0.13333333,0,736.70667)" />
      <path
         id="path13"
         d="m 6078.55,102.5 c -27.12,0 -50.48,6.402 -70.08,19.191 -19.59,12.809 -34.66,30.469 -45.2,52.95 -10.55,22.48 -15.83,48.168 -15.83,77.058 0,29.364 5.43,55.352 16.3,77.891 10.86,22.539 26.05,40.172 45.59,52.93 19.52,12.75 42.34,19.121 68.47,19.121 20.35,0 38.68,-3.77 55.01,-11.309 16.32,-7.551 29.7,-18.082 40.11,-31.641 10.44,-13.562 16.9,-29.402 19.42,-47.48 h -44.47 c -3.38,13.199 -10.9,24.898 -22.51,35.141 -11.62,10.238 -27.21,15.359 -46.81,15.359 -17.33,0 -32.49,-4.52 -45.5,-13.469 -12.99,-8.98 -23.09,-21.613 -30.32,-37.871 -7.22,-16.281 -10.83,-35.32 -10.83,-57.18 0,-22.359 3.54,-41.82 10.65,-58.402 7.09,-16.578 17.14,-29.457 30.13,-38.617 13,-9.16 28.29,-13.742 45.87,-13.742 11.56,0 22.04,2.011 31.47,6.019 9.41,4.012 17.39,9.793 23.91,17.332 6.53,7.551 11.18,16.59 13.94,27.121 h 44.47 c -2.52,-17.062 -8.7,-32.422 -18.56,-46.043 -9.87,-13.648 -22.86,-24.418 -38.99,-32.418 -16.15,-7.961 -34.89,-11.941 -56.24,-11.941"
         style="fill:#2e2735;fill-opacity:1;fill-rule:nonzero;stroke:none"
         transform="matrix(0.13333333,0,0,-0.13333333,0,736.70667)" />
      <path
         id="path14"
         d="m 6427.72,142.43 c 19.85,0 36.16,5.09 48.98,15.242 12.81,10.18 22.28,23.558 28.45,40.137 6.15,16.593 9.22,34.523 9.22,53.89 0,19.34 -3.07,37.36 -9.22,54.063 -6.17,16.668 -15.64,30.179 -28.45,40.5 -12.82,10.269 -29.13,15.449 -48.98,15.449 -19.85,0 -36.18,-5.18 -48.97,-15.449 -12.82,-10.321 -22.31,-23.832 -28.46,-40.5 -6.15,-16.703 -9.22,-34.723 -9.22,-54.063 0,-19.367 3.07,-37.297 9.22,-53.89 6.15,-16.579 15.64,-29.957 28.46,-40.137 12.79,-10.152 29.12,-15.242 48.97,-15.242 z m 0,-39.93 c -26.12,0 -49.02,6.191 -68.67,18.648 -19.65,12.422 -34.97,29.813 -45.95,52.184 -11,22.328 -16.5,48.457 -16.5,78.367 0,30.114 5.5,56.43 16.5,78.91 10.98,22.481 26.3,39.93 45.95,52.383 19.65,12.43 42.55,18.649 68.67,18.649 26.12,0 49.01,-6.219 68.66,-18.649 19.65,-12.453 34.98,-29.902 45.96,-52.383 10.99,-22.48 16.48,-48.796 16.48,-78.91 0,-29.91 -5.49,-56.039 -16.48,-78.367 -10.98,-22.371 -26.31,-39.762 -45.96,-52.184 -19.65,-12.457 -42.54,-18.648 -68.66,-18.648"
         style="fill:#2e2735;fill-opacity:1;fill-rule:nonzero;stroke:none"
         transform="matrix(0.13333333,0,0,-0.13333333,0,736.70667)" />
      <path
         id="path15"
         d="M 6916.3,397.871 6809.29,108.52 h -45.2 l -107,289.351 h 48.22 l 79.87,-230.59 h 3.02 l 79.87,230.59 h 48.23"
         style="fill:#2e2735;fill-opacity:1;fill-rule:nonzero;stroke:none"
         transform="matrix(0.13333333,0,0,-0.13333333,0,736.70667)" />
      <path
         id="path16"
         d="m 7059.29,276.539 c 0.8,13.5 4.2,26.102 10.1,38 6.9,14 16.8,25.301 29.7,34.102 12.8,8.699 28.1,13.101 45.8,13.101 16.1,0 30.1,-3.703 41.9,-11.203 11.9,-7.398 21.1,-17.5 27.5,-30.297 6.5,-12.801 9.7,-27.402 9.7,-43.703 z m 210,-19.598 c 0,27 -3.6,49.7 -10.8,68.2 -7.2,18.5 -16.7,33.3 -28.8,44.601 -12.1,11.199 -25.4,19.297 -40.1,24.399 -14.7,5 -29.6,7.5 -44.7,7.5 -26.1,0 -48.9,-6.399 -68.4,-19.102 -19.6,-12.797 -34.8,-30.5 -45.6,-53.199 -10.9,-22.598 -16.3,-48.801 -16.3,-78.399 0,-29.699 5.4,-55.601 16.3,-77.902 10.8,-22.297 26.3,-39.598 46.5,-52 20.1,-12.398 44.2,-18.5 72,-18.5 19.6,0 37.3,3 53,9.102 15.7,6.101 28.9,14.601 39.5,25.601 10.7,11 18.3,23.797 22.8,38.297 l -42.9,12.102 c -3.8,-10.102 -9.1,-18.399 -16,-25.2 -6.9,-6.699 -15.1,-11.699 -24.6,-15 -9.5,-3.402 -20.1,-5 -31.8,-5 -17.9,0 -33.7,3.899 -47.2,11.801 -13.6,7.797 -24.2,19.297 -31.8,34.399 -6.9,13.8 -10.7,30.3 -11.2,49.5 h 210.1 v 18.8"
         style="fill:#2e2735;fill-opacity:1;fill-rule:nonzero;stroke:none"
         transform="matrix(0.13333333,0,0,-0.13333333,0,736.70667)" />
      <path
         id="path17"
         d="m 7390.09,108.52 v 289.351 h 42.96 v -43.699 h 3 c 5.29,14.308 14.82,25.918 28.64,34.84 13.81,8.918 29.39,13.379 46.73,13.379 3.26,0 7.33,-0.059 12.24,-0.211 4.89,-0.121 8.59,-0.301 11.11,-0.539 V 356.41 c -1.5,0.391 -4.93,0.988 -10.27,1.801 -5.33,0.809 -10.96,1.219 -16.86,1.219 -14.07,0 -26.59,-2.93 -37.58,-8.77 -10.99,-5.828 -19.65,-13.859 -26,-24.09 -6.35,-10.238 -9.5,-21.89 -9.5,-34.941 V 108.52 h -44.47"
         style="fill:#2e2735;fill-opacity:1;fill-rule:nonzero;stroke:none"
         transform="matrix(0.13333333,0,0,-0.13333333,0,736.70667)" />
      <path
         id="path18"
         d="m 7669.19,0 c -7.54,0 -14.26,0.601563 -20.16,1.80078 -5.91,1.19141 -9.98,2.35938 -12.24,3.5 l 11.3,39.14842 c 10.79,-2.75 20.34,-3.7383 28.63,-2.9883 8.29,0.75 15.66,4.4297 22.14,11.0196 6.46,6.5781 12.39,17.2383 17.79,31.9414 l 8.3,22.5981 -107.01,290.851 h 48.23 l 79.87,-230.59 h 3.02 l 79.87,230.59 h 48.22 L 7754.33,66.3125 C 7748.8,51.3711 7741.96,38.9805 7733.79,29.1289 7725.63,19.25 7716.19,11.9414 7705.44,7.15234 7694.71,2.39063 7682.62,0 7669.19,0"
         style="fill:#2e2735;fill-opacity:1;fill-rule:nonzero;stroke:none"
         transform="matrix(0.13333333,0,0,-0.13333333,0,736.70667)" />
      <path
         id="path19"
         d="M 1089.38,1904.2 H 933.031 c -9.25,44.96 -25.328,84.47 -48.226,118.51 -22.918,34.04 -50.653,62.72 -83.223,86.07 -32.57,23.32 -68.609,40.86 -108.109,52.62 -39.516,11.77 -80.692,17.66 -123.563,17.66 -78.176,0 -148.898,-19.75 -212.137,-59.27 -63.269,-39.51 -113.484,-97.71 -150.679,-174.61 -37.196,-76.94 -55.785,-171.29 -55.785,-283.07 0,-111.81 18.589,-206.17 55.785,-283.07 37.195,-76.91 87.41,-135.13 150.679,-174.62 63.239,-39.51 133.961,-59.27 212.137,-59.27 42.871,0 84.047,5.9 123.563,17.66 39.5,11.77 75.539,29.31 108.109,52.63 32.57,23.32 60.305,52.12 83.223,86.36 22.898,34.28 38.976,73.68 48.226,118.22 h 156.349 c -11.78,-65.98 -33.21,-125.04 -64.3,-177.16 -31.115,-52.12 -69.779,-96.33 -115.998,-132.7 -46.234,-36.34 -98.039,-63.97 -155.41,-82.89 -57.371,-18.92 -118.621,-28.379 -183.762,-28.379 -110.117,0 -208.051,26.909 -293.785,80.699 -85.734,53.8 -153.195,130.28 -202.3633,229.49 C 24.5938,1408.26 0,1525.93 0,1662.11 c 0,136.17 24.5938,253.85 73.7617,353.03 49.1683,99.2 116.6293,175.69 202.3633,229.48 85.734,53.8 183.668,80.71 293.785,80.71 65.141,0 126.391,-9.46 183.762,-28.38 57.371,-18.92 109.176,-46.55 155.41,-82.89 46.219,-36.37 84.883,-80.5 115.998,-132.41 31.09,-51.9 52.52,-111.06 64.3,-177.45"
         style="fill:#2e2735;fill-opacity:1;fill-rule:nonzero;stroke:none"
         transform="matrix(0.13333333,0,0,-0.13333333,0,736.70667)" />
      <path
         id="path20"
         d="m 1629.02,1127.49 c 58.83,0 108.53,11.55 149.09,34.7 40.55,23.11 71.23,52.95 92.04,89.5 20.8,36.58 31.2,75.02 31.2,115.37 v 136.18 c -6.3,-7.57 -20.07,-14.4 -41.29,-20.48 -21.23,-6.1 -45.61,-11.37 -73.12,-15.77 -27.54,-4.4 -54.23,-8.2 -80.06,-11.35 -25.85,-3.14 -46.78,-5.77 -62.73,-7.87 -38.68,-5.06 -74.71,-13.14 -108.13,-24.28 -33.41,-11.13 -60.3,-27.75 -80.69,-49.81 -20.39,-22.06 -30.58,-52 -30.58,-89.84 0,-51.7 19.23,-90.67 57.69,-116.92 38.45,-26.29 87.32,-39.43 146.58,-39.43 z m -22.7,-133.631 c -61.36,0 -117.06,11.641 -167.07,34.991 -50.02,23.32 -89.73,57.15 -119.15,101.48 -29.42,44.34 -44.13,98.04 -44.13,161.09 0,55.47 10.93,100.55 32.78,135.22 21.85,34.66 51.07,61.87 87.64,81.63 36.56,19.76 77.01,34.58 121.35,44.45 44.34,9.88 88.99,17.76 133.97,23.65 58.83,7.58 106.64,13.32 143.42,17.34 36.77,3.98 63.67,10.8 80.69,20.47 17.03,9.67 25.53,26.49 25.53,50.44 v 5.06 c 0,62.18 -16.91,110.52 -50.74,144.98 -33.84,34.46 -85.01,51.7 -153.51,51.7 -71.03,0 -126.71,-15.54 -167.07,-46.64 -40.33,-31.1 -68.71,-64.3 -85.1,-99.63 l -141.22,50.44 c 25.22,58.86 58.95,104.75 101.18,137.77 42.24,32.99 88.47,56.1 138.7,69.33 50.22,13.23 99.7,19.88 148.47,19.88 31.09,0 66.92,-3.69 107.48,-11.05 40.55,-7.36 79.86,-22.39 117.89,-45.08 38.03,-22.69 69.66,-56.94 94.88,-102.74 25.22,-45.83 37.82,-107.17 37.82,-184.11 v -637.98 h -148.78 v 131.12 h -7.56 c -10.08,-21.02 -26.89,-43.5 -50.44,-67.45 -23.54,-23.95 -54.84,-44.33 -93.92,-61.16 -39.1,-16.79 -86.8,-25.201 -143.11,-25.201"
         style="fill:#2e2735;fill-opacity:1;fill-rule:nonzero;stroke:none"
         transform="matrix(0.13333333,0,0,-0.13333333,0,736.70667)" />
      <path
         id="path21"
         d="m 3008.38,1768.02 -133.64,-37.84 c -8.42,22.27 -20.7,44.04 -36.88,65.26 -16.18,21.23 -38.14,38.77 -65.88,52.66 -27.75,13.86 -63.27,20.77 -106.55,20.77 -59.26,0 -108.53,-13.53 -147.82,-40.65 -39.31,-27.09 -58.96,-61.46 -58.96,-103.07 0,-37 13.45,-66.19 40.35,-87.62 26.9,-21.43 68.93,-39.3 126.09,-53.58 l 143.73,-35.33 c 86.58,-21.01 151.09,-53.04 193.55,-96.12 42.44,-43.11 63.68,-98.46 63.68,-166.14 0,-55.47 -15.89,-105.08 -47.6,-148.78 -31.75,-43.71 -75.98,-78.16 -132.71,-103.37 -56.74,-25.23 -122.73,-37.839 -197.96,-37.839 -98.77,0 -180.51,21.439 -245.23,64.299 -64.74,42.87 -105.7,105.5 -122.93,187.88 l 141.2,35.29 c 13.46,-52.11 38.98,-91.18 76.61,-117.25 37.6,-26.08 86.89,-39.1 147.84,-39.1 69.34,0 124.5,14.82 165.48,44.45 40.98,29.64 61.47,65.26 61.47,106.87 0,33.62 -11.78,61.88 -35.31,84.78 -23.54,22.9 -59.69,40.05 -108.44,51.4 l -161.38,37.81 c -88.69,21.01 -153.73,53.7 -195.12,98.04 -41.4,44.33 -62.1,99.92 -62.1,166.74 0,54.63 15.44,102.98 46.34,145.01 30.89,42.03 73.13,75.01 126.72,98.96 53.58,23.95 114.42,35.96 182.5,35.96 95.84,0 171.17,-21.05 226.01,-63.05 54.86,-42.03 93.83,-97.53 116.94,-166.44"
         style="fill:#2e2735;fill-opacity:1;fill-rule:nonzero;stroke:none"
         transform="matrix(0.13333333,0,0,-0.13333333,0,736.70667)" />
      <path
         id="path22"
         d="m 3558.1,1127.49 c 58.84,0 108.53,11.55 149.1,34.7 40.55,23.11 71.23,52.95 92.03,89.5 20.81,36.58 31.21,75.02 31.21,115.37 v 136.18 c -6.3,-7.57 -20.07,-14.4 -41.29,-20.48 -21.23,-6.1 -45.61,-11.37 -73.12,-15.77 -27.54,-4.4 -54.23,-8.2 -80.06,-11.35 -25.85,-3.14 -46.78,-5.77 -62.73,-7.87 -38.68,-5.06 -74.71,-13.14 -108.13,-24.28 -33.41,-11.13 -60.31,-27.75 -80.69,-49.81 -20.39,-22.06 -30.58,-52 -30.58,-89.84 0,-51.7 19.23,-90.67 57.68,-116.92 38.46,-26.29 87.33,-39.43 146.58,-39.43 z m -22.69,-133.631 c -61.37,0 -117.06,11.641 -167.07,34.991 -50.02,23.32 -89.73,57.15 -119.16,101.48 -29.41,44.34 -44.12,98.04 -44.12,161.09 0,55.47 10.93,100.55 32.78,135.22 21.85,34.66 51.07,61.87 87.63,81.63 36.57,19.76 77.01,34.58 121.36,44.45 44.34,9.88 88.99,17.76 133.96,23.65 58.84,7.58 106.65,13.32 143.43,17.34 36.77,3.98 63.67,10.8 80.69,20.47 17.03,9.67 25.53,26.49 25.53,50.44 v 5.06 c 0,62.18 -16.91,110.52 -50.74,144.98 -33.84,34.46 -85.02,51.7 -153.51,51.7 -71.03,0 -126.71,-15.54 -167.07,-46.64 -40.34,-31.1 -68.72,-64.3 -85.1,-99.63 l -141.23,50.44 c 25.23,58.86 58.96,104.75 101.19,137.77 42.24,32.99 88.47,56.1 138.7,69.33 50.22,13.23 99.7,19.88 148.47,19.88 31.09,0 66.92,-3.69 107.48,-11.05 40.55,-7.36 79.85,-22.39 117.89,-45.08 38.03,-22.69 69.66,-56.94 94.88,-102.74 25.22,-45.83 37.82,-107.17 37.82,-184.11 v -637.98 h -148.78 v 131.12 h -7.56 c -10.09,-21.02 -26.89,-43.5 -50.44,-67.45 -23.54,-23.95 -54.84,-44.33 -93.92,-61.16 -39.1,-16.79 -86.8,-25.201 -143.11,-25.201"
         style="fill:#2e2735;fill-opacity:1;fill-rule:nonzero;stroke:none"
         transform="matrix(0.13333333,0,0,-0.13333333,0,736.70667)" />
      <path
         id="path23"
         d="m 4771.05,1016.55 v 1291.12 h 156.33 V 1155.24 h 600.17 v -138.69 h -756.5"
         style="fill:#2e2735;fill-opacity:1;fill-rule:nonzero;stroke:none"
         transform="matrix(0.13333333,0,0,-0.13333333,0,736.70667)" />
      <path
         id="path24"
         d="m 5853.59,1578.84 c 2.8,44.9 14.1,87.4 33.9,127.4 23.2,46.7 56.3,84.6 99.3,113.8 43.1,29.2 94.3,43.8 153.6,43.8 53.7,0 100.5,-12.4 140.2,-37.2 39.7,-24.8 70.4,-58.6 92.1,-101.5 21.6,-42.9 32.4,-91.6 32.4,-146.3 z m 702.8,-65.5 c 0,90.3 -11.9,166.4 -35.9,228.2 -24,61.8 -56.1,111.5 -96.5,149.1 -40.3,37.6 -85.1,64.8 -134.2,81.6 -49.2,16.9 -99,25.3 -149.4,25.3 -87.5,0 -163.9,-21.4 -229.2,-64 -65.4,-42.7 -116.2,-102 -152.6,-177.8 -36.3,-75.9 -54.5,-163.4 -54.5,-262.6 0,-99.2 18.2,-186.1 54.5,-260.7 36.4,-74.6 88.3,-132.6 155.7,-174 67.5,-41.4 147.9,-62.1 241.2,-62.1 65.5,0 124.6,10.2 177.1,30.6 52.6,20.4 96.7,49 132.4,85.8 35.7,36.7 61.2,79.5 76.3,128.2 l -143.7,40.4 c -12.6,-33.6 -30.5,-61.7 -53.6,-84.2 -23.2,-22.5 -50.6,-39.3 -82.3,-50.4 -31.7,-11.1 -67.1,-16.7 -106.2,-16.7 -60.1,0 -112.9,13.1 -158.3,39.4 -45.4,26.2 -80.8,64.7 -106.2,115.4 -23,45.9 -35.6,101 -37.8,165.4 h 703.2 v 63.1"
         style="fill:#2e2735;fill-opacity:1;fill-rule:nonzero;stroke:none"
         transform="matrix(0.13333333,0,0,-0.13333333,0,736.70667)" />
      <path
         id="path25"
         d="M 7575.18,1984.87 7217.11,1016.55 H 7065.8 l -358.09,968.32 h 161.39 l 267.3,-771.61 h 10.09 l 267.31,771.61 h 161.38"
         style="fill:#2e2735;fill-opacity:1;fill-rule:nonzero;stroke:none"
         transform="matrix(0.13333333,0,0,-0.13333333,0,736.70667)" />
      <path
         id="path26"
         d="m 7875.99,1578.84 c 2.8,44.9 14.1,87.4 33.9,127.4 23.1,46.7 56.2,84.6 99.3,113.8 43.1,29.2 94.3,43.8 153.5,43.8 53.8,0 100.6,-12.4 140.3,-37.2 39.7,-24.8 70.4,-58.6 92,-101.5 21.7,-42.9 32.5,-91.6 32.5,-146.3 z m 702.8,-65.5 c 0,90.3 -12,166.4 -35.9,228.2 -24,61.8 -56.1,111.5 -96.5,149.1 -40.3,37.6 -85.1,64.8 -134.3,81.6 -49.1,16.9 -98.9,25.3 -149.4,25.3 -87.4,0 -163.8,-21.4 -229.1,-64 -65.4,-42.7 -116.2,-102 -152.6,-177.8 -36.4,-75.9 -54.5,-163.4 -54.5,-262.6 0,-99.2 18.1,-186.1 54.5,-260.7 36.4,-74.6 88.3,-132.6 155.7,-174 67.5,-41.4 147.9,-62.1 241.2,-62.1 65.5,0 124.6,10.2 177.1,30.6 52.5,20.4 96.7,49 132.4,85.8 35.7,36.7 61.1,79.5 76.3,128.2 l -143.8,40.4 c -12.6,-33.6 -30.4,-61.7 -53.5,-84.2 -23.2,-22.5 -50.6,-39.3 -82.3,-50.4 -31.8,-11.1 -67.2,-16.7 -106.2,-16.7 -60.1,0 -112.9,13.1 -158.3,39.4 -45.4,26.2 -80.8,64.7 -106.2,115.4 -23,45.9 -35.6,101 -37.8,165.4 h 703.2 v 63.1"
         style="fill:#2e2735;fill-opacity:1;fill-rule:nonzero;stroke:none"
         transform="matrix(0.13333333,0,0,-0.13333333,0,736.70667)" />
      <path
         id="path27"
         d="m 8954.53,1599.06 v -582.51 h -148.78 v 968.32 h 143.74 v -151.29 h 12.6 c 22.71,49.18 57.16,88.79 103.4,118.84 46.22,30.03 105.91,45.09 179.04,45.09 65.56,0 122.93,-13.36 172.1,-40.06 49.17,-26.67 87.41,-67.02 114.74,-121.03 27.32,-54 40.97,-122.19 40.97,-204.58 v -615.29 h -148.78 v 605.2 c 0,76.07 -19.76,135.43 -59.26,178.09 -39.5,42.66 -93.72,64 -162.65,64 -47.49,0 -89.82,-10.29 -127.03,-30.89 -37.2,-20.6 -66.5,-50.65 -87.94,-90.14 -21.43,-39.51 -32.15,-87.44 -32.15,-143.75"
         style="fill:#2e2735;fill-opacity:1;fill-rule:nonzero;stroke:none"
         transform="matrix(0.13333333,0,0,-0.13333333,0,736.70667)" />
      <path
         id="path28"
         d="m 4930.83,3369.4 c -550.49,0 -763.37,444.19 -786.55,994.69 -1.54,61.22 -2.05,123.47 -1.41,185.84 0.13,22.16 27.67,31.64 41.88,14.73 178.42,-213.51 604.42,-324.43 931.29,-424.21 70.38,-21.29 129.06,-52.83 176.98,-93.29 102.23,-86.32 93.26,-247.3 -19.08,-319.95 -76.49,-49.47 -178.94,-79.62 -312.62,-83.2 h -29.97 c -0.9,0 -1.8,-0.13 -2.69,-0.26 -3.08,-0.51 -5.9,-1.79 -8.07,-3.71 -3.59,-3.08 -5.89,-7.56 -5.89,-12.68 0,-9.1 7.42,-16.65 16.65,-16.65 h 36.37 c 0.39,0 0.9,0 1.28,0.12 0.13,-0.12 0.26,0 0.26,0 2.05,-0.12 4.22,-0.12 6.53,-0.12 159.68,0 302.96,29.77 419.44,85.49 19.42,9.29 40.9,-9.24 34.17,-29.69 -57.49,-174.7 -206.67,-297.11 -498.57,-297.11 z m -783.48,1360.36 c 0.9,21.78 1.92,43.42 3.21,64.94 1.4,26.39 35.73,34.84 49.69,12.42 143.33,-229.01 564.72,-295.48 911.05,-401.41 166.35,-50.29 266.8,-157.99 314,-306.05 6.54,-20.5 -15.53,-38.56 -34.37,-28.15 -72.02,39.79 -150.42,70.66 -228.4,92.13 -365.54,96.06 -839.06,245.66 -989.56,473 -18.19,27.54 -26.9,60.2 -25.62,93.12 z m 28.13,289.67 c 1.68,17.63 15.72,32.81 33.42,33.47 10.14,0.38 20.54,-3.43 28.24,-11.9 171.76,-189.95 557.54,-254.62 878.9,-352.74 173.09,-52.35 275.44,-166.52 321.04,-323.36 7.28,-25.04 -20.1,-45.91 -42.77,-33.03 -74.26,42.18 -155.71,74.67 -236.77,97.03 -453.42,119.06 -1015.66,238.12 -982.06,590.53 z m 987.05,-307.98 c -323.28,84.91 -701.12,169.83 -882.87,337.88 -41.11,38.04 -49.57,100.16 -20.62,148.06 114.63,190.2 280.37,300.22 602.37,300.22 439.58,0 703.3,-365.54 619.92,-633.88 -60.07,-198.91 226.71,-231.31 226.71,-9.22 0,337.76 -402.44,670.77 -846.63,670.77 -675.38,-4.61 -966.89,-462.63 -966.89,-1077.94 0,-592.13 425.62,-1110.35 1077.94,-1110.35 162,0 306.84,30.86 423.75,88.57 22.49,11.1 47.33,-10.11 39.32,-33.87 -56.9,-168.79 -199.64,-288.09 -474.21,-295.49 h -29.97 c -0.9,0 -1.8,-0.13 -2.69,-0.26 -3.08,-0.51 -5.9,-1.79 -8.07,-3.71 -3.59,-3.08 -5.89,-7.56 -5.89,-12.68 0,-9.1 7.42,-16.65 16.65,-16.65 h 36.37 c 0.39,0 0.9,0 1.28,0.13 0.13,-0.13 0.26,0 0.26,0 2.05,-0.13 4.22,-0.13 6.53,-0.13 424.34,0 732.25,210.05 732.25,559.72 0,49.82 -8.71,96.7 -24.6,140.5 10.12,40.61 15.37,83.64 15.37,129.11 0,39.83 -5.63,77.75 -16.01,113.74 16.53,50.59 25.24,105.54 25.24,164.46 0,280.11 -275.12,466.34 -545.51,541.02"
         style="fill:#2e2735;fill-opacity:1;fill-rule:nonzero;stroke:none"
         transform="matrix(0.13333333,0,0,-0.13333333,0,736.70667)" />
    </g>
  </g>
</svg>
