<?xml version="1.0" encoding="UTF-8" standalone="no"?>
<!-- Created with Inkscape (http://www.inkscape.org/) -->

<svg
   version="1.1"
   id="svg1"
   width="1343.04"
   height="518.90668"
   viewBox="0 0 1343.04 518.90668"
   sodipodi:docname="Leven Therma_color.eps"
   xmlns:inkscape="http://www.inkscape.org/namespaces/inkscape"
   xmlns:sodipodi="http://sodipodi.sourceforge.net/DTD/sodipodi-0.dtd"
   xmlns="http://www.w3.org/2000/svg"
   xmlns:svg="http://www.w3.org/2000/svg">
  <defs
     id="defs1" />
  <sodipodi:namedview
     id="namedview1"
     pagecolor="#ffffff"
     bordercolor="#000000"
     borderopacity="0.25"
     inkscape:showpageshadow="2"
     inkscape:pageopacity="0.0"
     inkscape:pagecheckerboard="0"
     inkscape:deskcolor="#d1d1d1">
    <inkscape:page
       x="0"
       y="0"
       inkscape:label="1"
       id="page1"
       width="1343.04"
       height="518.90668"
       margin="0"
       bleed="0" />
  </sodipodi:namedview>
  <g
     id="g1"
     inkscape:groupmode="layer"
     inkscape:label="1">
    <g
       id="group-R5">
      <path
         id="path2"
         d="M 0,19.4883 V 1128.36 H 134.258 V 138.609 H 649.711 V 19.4883 H 0"
         style="fill:#526478;fill-opacity:1;fill-rule:nonzero;stroke:none"
         transform="matrix(0.13333333,0,0,-0.13333333,0,518.90667)" />
      <path
         id="path3"
         d="m 929.699,502.461 c 2.399,38.598 12.199,75 29.203,109.398 19.797,40 48.298,72.602 85.298,97.7 36.9,25.101 80.9,37.601 131.8,37.601 46.2,0 86.4,-10.601 120.5,-31.898 34.1,-21.301 60.4,-50.403 79,-87.203 18.6,-36.797 27.9,-78.7 27.9,-125.598 z M 1533.3,446.16 c 0,77.602 -10.3,142.899 -30.8,196 -20.6,53 -48.2,95.699 -82.9,128 -34.6,32.301 -73,55.699 -115.3,70.102 -42.2,14.5 -85,21.699 -128.3,21.699 -75.1,0 -140.7,-18.301 -196.801,-55 -56.097,-36.602 -99.801,-87.5 -131.097,-152.602 -31.204,-65.199 -46.805,-140.398 -46.805,-225.5 0,-85.199 15.601,-159.898 46.805,-223.898 C 879.398,140.859 924,91.0586 981.898,55.4609 1039.8,19.9609 1108.9,2.16016 1189,2.16016 c 56.3,0 107,8.80074 152.1,26.30074 45.1,17.5 83,42 113.7,73.5981 30.7,31.601 52.5,68.3 65.5,110.203 l -123.4,34.597 c -10.8,-28.8 -26.2,-53 -46,-72.199 -19.9,-19.398 -43.4,-33.801 -70.7,-43.398 -27.2,-9.5 -57.6,-14.301 -91.2,-14.301 -51.6,0 -96.9,11.301 -135.9,33.801 -39,22.597 -69.401,55.597 -91.202,99.097 -19.8,39.403 -30.699,86.801 -32.5,142.102 H 1533.3 v 54.199"
         style="fill:#526478;fill-opacity:1;fill-rule:nonzero;stroke:none"
         transform="matrix(0.13333333,0,0,-0.13333333,0,518.90667)" />
      <path
         id="path4"
         d="M 2408.29,851.129 2100.75,19.4883 H 1970.81 L 1663.27,851.129 h 138.6 L 2031.43,188.43 h 8.67 l 229.59,662.699 h 138.6"
         style="fill:#526478;fill-opacity:1;fill-rule:nonzero;stroke:none"
         transform="matrix(0.13333333,0,0,-0.13333333,0,518.90667)" />
      <path
         id="path5"
         d="m 2666.6,502.461 c 2.4,38.598 12.2,75 29.2,109.398 19.8,40 48.3,72.602 85.3,97.7 37,25.101 80.9,37.601 131.8,37.601 46.2,0 86.4,-10.601 120.5,-31.898 34.1,-21.301 60.4,-50.403 79,-87.203 18.6,-36.797 27.9,-78.7 27.9,-125.598 z m 603.6,-56.301 c 0,77.602 -10.2,142.899 -30.8,196 -20.6,53 -48.2,95.699 -82.9,128 -34.6,32.301 -73,55.699 -115.3,70.102 -42.2,14.5 -85,21.699 -128.3,21.699 -75.1,0 -140.7,-18.301 -196.8,-55 -56.1,-36.602 -99.8,-87.5 -131.1,-152.602 -31.2,-65.199 -46.8,-140.398 -46.8,-225.5 0,-85.199 15.6,-159.898 46.8,-223.898 31.3,-64.102 75.9,-113.9024 133.8,-149.5001 57.9,-35.5 127,-53.30074 207.1,-53.30074 56.3,0 107,8.80074 152.1,26.30074 45.1,17.5 83,42 113.7,73.5981 30.7,31.601 52.5,68.3 65.6,110.203 l -123.5,34.597 c -10.8,-28.8 -26.2,-53 -46,-72.199 -19.9,-19.398 -43.4,-33.801 -70.7,-43.398 -27.2,-9.5 -57.6,-14.301 -91.2,-14.301 -51.6,0 -96.9,11.301 -135.9,33.801 -39,22.597 -69.4,55.597 -91.2,99.097 -19.8,39.403 -30.7,86.801 -32.5,142.102 h 603.9 v 54.199"
         style="fill:#526478;fill-opacity:1;fill-rule:nonzero;stroke:none"
         transform="matrix(0.13333333,0,0,-0.13333333,0,518.90667)" />
      <path
         id="path6"
         d="M 3592.94,519.781 V 19.4883 H 3465.17 V 851.129 H 3588.6 V 721.191 h 10.82 c 19.52,42.239 49.11,76.258 88.81,102.071 39.69,25.777 90.96,38.718 153.77,38.718 56.3,0 105.59,-11.468 147.8,-34.398 42.24,-22.91 75.07,-57.57 98.55,-103.953 23.47,-46.379 35.19,-104.949 35.19,-175.699 V 19.4883 H 3995.77 V 539.27 c 0,65.332 -16.97,116.312 -50.91,152.941 -33.91,36.641 -80.5,54.969 -139.68,54.969 -40.8,0 -77.16,-8.84 -109.11,-26.532 -31.94,-17.687 -57.1,-43.5 -75.51,-77.41 -18.41,-33.937 -27.62,-75.097 -27.62,-123.457"
         style="fill:#526478;fill-opacity:1;fill-rule:nonzero;stroke:none"
         transform="matrix(0.13333333,0,0,-0.13333333,0,518.90667)" />
      <path
         id="path7"
         d="m 4742.92,1009.24 v 119.12 h 831.66 v -119.12 h -348.7 V 19.4883 H 5091.62 V 1009.24 h -348.7"
         style="fill:#526478;fill-opacity:1;fill-rule:nonzero;stroke:none"
         transform="matrix(0.13333333,0,0,-0.13333333,0,518.90667)" />
      <path
         id="path8"
         d="M 5892.94,519.781 V 19.4883 H 5765.17 V 1128.36 h 127.77 V 721.191 h 10.83 c 19.49,42.957 48.79,77.161 87.98,102.61 39.15,25.449 91.39,38.179 156.75,38.179 56.66,0 106.28,-11.289 148.88,-33.859 42.61,-22.551 75.72,-57.031 99.37,-103.41 23.63,-46.379 35.46,-105.313 35.46,-176.781 V 19.4883 H 6304.43 V 539.27 c 0,66.05 -17.05,117.23 -51.16,153.511 -34.12,36.278 -81.32,54.399 -141.59,54.399 -41.88,0 -79.34,-8.84 -112.35,-26.532 -33.04,-17.687 -59.03,-43.5 -77.98,-77.41 -18.95,-33.937 -28.41,-75.097 -28.41,-123.457"
         style="fill:#526478;fill-opacity:1;fill-rule:nonzero;stroke:none"
         transform="matrix(0.13333333,0,0,-0.13333333,0,518.90667)" />
      <path
         id="path9"
         d="m 6755.5,502.461 c 2.4,38.598 12.2,75 29.2,109.398 19.8,40 48.2,72.602 85.2,97.7 37,25.101 81,37.601 131.9,37.601 46.2,0 86.3,-10.601 120.5,-31.898 34.1,-21.301 60.4,-50.403 79,-87.203 18.6,-36.797 27.9,-78.7 27.9,-125.598 z m 603.6,-56.301 c 0,77.602 -10.3,142.899 -30.8,196 -20.6,53 -48.2,95.699 -82.9,128 -34.6,32.301 -73.1,55.699 -115.3,70.102 -42.2,14.5 -85,21.699 -128.3,21.699 -75.1,0 -140.7,-18.301 -196.8,-55 -56.2,-36.602 -99.8,-87.5 -131.1,-152.602 -31.2,-65.199 -46.8,-140.398 -46.8,-225.5 0,-85.199 15.6,-159.898 46.8,-223.898 31.3,-64.102 75.8,-113.9024 133.8,-149.5001 57.9,-35.5 127,-53.30074 207.1,-53.30074 56.3,0 107,8.80074 152.1,26.30074 45.1,17.5 83,42 113.7,73.5981 30.7,31.601 52.5,68.3 65.5,110.203 l -123.4,34.597 c -10.8,-28.8 -26.2,-53 -46,-72.199 -19.9,-19.398 -43.4,-33.801 -70.7,-43.398 -27.2,-9.5 -57.7,-14.301 -91.2,-14.301 -51.6,0 -96.9,11.301 -135.9,33.801 -39,22.597 -69.4,55.597 -91.3,99.097 -19.8,39.403 -30.6,86.801 -32.4,142.102 h 603.9 v 54.199"
         style="fill:#526478;fill-opacity:1;fill-rule:nonzero;stroke:none"
         transform="matrix(0.13333333,0,0,-0.13333333,0,518.90667)" />
      <path
         id="path10"
         d="M 7554.05,19.4883 V 851.129 h 123.44 V 725.531 h 8.66 c 15.17,41.141 42.6,74.539 82.3,100.168 39.69,25.61 84.45,38.442 134.28,38.442 9.38,0 21.11,-0.18 35.2,-0.539 14.06,-0.364 24.7,-0.903 31.93,-1.622 V 732.012 c -4.32,1.078 -14.17,2.808 -29.49,5.148 -15.35,2.36 -31.5,3.52 -48.46,3.52 -40.45,0 -76.44,-8.379 -108.04,-25.168 -31.57,-16.793 -56.48,-39.883 -74.71,-69.321 -18.23,-29.41 -27.33,-62.882 -27.33,-100.421 V 19.4883 h -127.78"
         style="fill:#526478;fill-opacity:1;fill-rule:nonzero;stroke:none"
         transform="matrix(0.13333333,0,0,-0.13333333,0,518.90667)" />
      <path
         id="path11"
         d="M 8121.44,19.4883 V 851.129 H 8244.9 V 721.191 h 10.83 c 17.32,44.399 45.3,78.95 83.91,103.688 38.62,24.73 85,37.101 139.14,37.101 54.87,0 100.63,-12.371 137.27,-37.101 36.63,-24.738 65.25,-59.289 85.82,-103.688 h 8.66 c 21.29,42.957 53.25,77.161 95.82,102.61 42.6,25.449 93.69,38.179 153.23,38.179 74.35,0 135.18,-23.218 182.46,-69.601 47.28,-46.379 70.94,-118.469 70.94,-216.297 V 19.4883 H 9085.2 V 576.082 c 0,61.367 -16.79,105.227 -50.34,131.59 -33.58,26.316 -73.12,39.508 -118.6,39.508 -58.46,0 -103.76,-17.578 -135.87,-52.782 -32.14,-35.199 -48.21,-79.699 -48.21,-133.457 V 19.4883 H 8602.24 V 589.09 c 0,47.281 -15.35,85.441 -46.02,114.512 -30.7,29.058 -70.21,43.578 -118.57,43.578 -33.22,0 -64.17,-8.84 -92.87,-26.532 -28.69,-17.687 -51.8,-42.136 -69.28,-73.347 -17.54,-31.242 -26.28,-67.231 -26.28,-108.031 V 19.4883 h -127.78"
         style="fill:#526478;fill-opacity:1;fill-rule:nonzero;stroke:none"
         transform="matrix(0.13333333,0,0,-0.13333333,0,518.90667)" />
      <path
         id="path12"
         d="m 9711.08,114.77 c 50.55,0 93.22,9.929 128.06,29.8 34.81,19.852 61.16,45.481 79.03,76.871 17.87,31.418 26.82,64.43 26.82,99.09 V 437.48 c -5.43,-6.5 -17.25,-12.359 -35.48,-17.582 -18.23,-5.25 -39.16,-9.769 -62.79,-13.546 -23.65,-3.782 -46.58,-7.051 -68.77,-9.75 -22.19,-2.704 -40.16,-4.961 -53.86,-6.762 -33.22,-4.34 -64.17,-11.281 -92.87,-20.852 -28.69,-9.558 -51.8,-23.828 -69.31,-42.777 -17.51,-18.949 -26.25,-44.66 -26.25,-77.152 0,-44.411 16.51,-77.879 49.54,-100.43 33.02,-22.57 75,-33.859 125.88,-33.859 z M 9691.59,0 c -52.7,0 -100.52,10.0117 -143.48,30.0586 -42.97,20.0312 -77.06,49.082 -102.33,87.1604 -25.27,38.07 -37.9,84.191 -37.9,138.34 0,47.64 9.39,86.363 28.16,116.132 18.76,29.77 43.86,53.141 75.25,70.11 31.42,16.969 66.15,29.699 104.23,38.179 38.07,8.481 76.43,15.25 115.05,20.309 50.54,6.512 91.6,11.441 123.17,14.891 31.6,3.422 54.69,9.281 69.32,17.582 14.63,8.308 21.93,22.758 21.93,43.32 v 4.348 c 0,53.402 -14.53,94.922 -43.58,124.511 -29.08,29.59 -73.02,44.399 -131.84,44.399 -61.01,0 -108.83,-13.34 -143.49,-40.051 -34.65,-26.719 -59.03,-55.23 -73.09,-85.57 l -121.3,43.32 c 21.67,50.551 50.65,89.961 86.9,118.32 36.28,28.332 76,48.18 119.14,59.551 43.12,11.36 85.61,17.07 127.49,17.07 26.72,0 57.49,-3.171 92.33,-9.492 34.81,-6.316 68.57,-19.226 101.24,-38.718 32.66,-19.489 59.81,-48.899 81.51,-88.239 21.6,-39.359 32.5,-92.043 32.5,-158.109 V 19.4883 H 9944.99 V 132.102 h -6.51 C 9929.82,114.051 9915.4,94.7383 9895.16,74.1797 9874.95,53.6094 9848.06,36.1016 9814.51,21.6484 9780.93,7.23047 9739.95,0 9691.59,0"
         style="fill:#526478;fill-opacity:1;fill-rule:nonzero;stroke:none"
         transform="matrix(0.13333333,0,0,-0.13333333,0,518.90667)" />
      <path
         id="path13"
         d="m 5138.97,2040.21 c -472.79,0 -655.62,381.49 -675.53,854.28 -1.32,52.58 -1.76,106.04 -1.21,159.62 0.11,19.02 23.76,27.16 35.97,12.64 153.24,-183.37 519.11,-278.63 799.83,-364.32 60.45,-18.29 110.84,-45.38 152,-80.13 87.79,-74.14 80.1,-212.39 -16.39,-274.79 -65.69,-42.48 -153.68,-68.37 -268.49,-71.45 h -25.74 c -0.77,0 -1.54,-0.11 -2.31,-0.22 -2.64,-0.44 -5.06,-1.54 -6.93,-3.19 -3.08,-2.64 -5.06,-6.49 -5.06,-10.89 0,-7.81 6.38,-14.3 14.3,-14.3 h 31.24 c 0.33,0 0.77,0 1.1,0.11 0.11,-0.11 0.22,0 0.22,0 1.76,-0.11 3.63,-0.11 5.61,-0.11 137.14,0 260.2,25.57 360.23,73.42 16.68,7.98 35.13,-7.94 29.35,-25.5 -49.38,-150.03 -177.5,-255.17 -428.19,-255.17 z m -672.89,1168.34 c 0.77,18.7 1.65,37.29 2.75,55.77 1.21,22.66 30.7,29.92 42.69,10.67 123.09,-196.69 485,-253.78 782.44,-344.75 142.87,-43.19 229.13,-135.69 269.68,-262.85 5.61,-17.6 -13.34,-33.11 -29.52,-24.18 -61.85,34.18 -129.19,60.69 -196.16,79.13 -313.94,82.5 -720.62,210.98 -849.88,406.23 -15.62,23.66 -23.1,51.71 -22,79.98 z m 24.16,248.77 c 1.44,15.15 13.5,28.19 28.7,28.75 8.72,0.32 17.65,-2.94 24.26,-10.22 147.51,-163.13 478.84,-218.68 754.83,-302.94 148.66,-44.97 236.56,-143.02 275.72,-277.72 6.25,-21.51 -17.26,-39.43 -36.73,-28.37 -63.77,36.23 -133.73,64.13 -203.35,83.33 -389.41,102.26 -872.29,204.51 -843.43,507.17 z m 847.72,-264.5 c -277.64,72.93 -602.15,145.86 -758.24,290.18 -35.31,32.67 -42.57,86.02 -17.71,127.16 98.45,163.36 240.79,257.85 517.34,257.85 377.52,0 604.02,-313.95 532.41,-544.4 -51.59,-170.84 194.7,-198.66 194.7,-7.92 0,290.08 -345.63,576.08 -727.11,576.08 -580.04,-3.96 -830.41,-397.33 -830.41,-925.78 0,-508.54 365.54,-953.61 925.78,-953.61 139.13,0 263.52,26.51 363.94,76.07 19.31,9.53 40.64,-8.69 33.76,-29.09 -48.87,-144.97 -171.46,-247.42 -407.27,-253.78 h -25.74 c -0.77,0 -1.54,-0.11 -2.31,-0.22 -2.64,-0.44 -5.06,-1.54 -6.93,-3.19 -3.08,-2.64 -5.06,-6.49 -5.06,-10.89 0,-7.81 6.38,-14.3 14.3,-14.3 h 31.24 c 0.33,0 0.77,0 1.1,0.11 0.11,-0.11 0.22,0 0.22,0 1.76,-0.11 3.63,-0.11 5.61,-0.11 364.44,0 628.88,180.4 628.88,480.71 0,42.79 -7.48,83.05 -21.12,120.67 8.69,34.87 13.2,71.83 13.2,110.88 0,34.21 -4.84,66.77 -13.75,97.68 14.19,43.45 21.67,90.65 21.67,141.25 0,240.57 -236.28,400.51 -468.5,464.65"
         style="fill:#526478;fill-opacity:1;fill-rule:nonzero;stroke:none"
         transform="matrix(0.13333333,0,0,-0.13333333,0,518.90667)" />
    </g>
  </g>
</svg>
