<?xml version="1.0" encoding="UTF-8" standalone="no"?>
<!-- Created with Inkscape (http://www.inkscape.org/) -->

<svg
   version="1.1"
   id="svg1"
   width="1313.88"
   height="504.86667"
   viewBox="0 0 1313.88 504.86667"
   sodipodi:docname="Leven Nourish_color.eps"
   xmlns:inkscape="http://www.inkscape.org/namespaces/inkscape"
   xmlns:sodipodi="http://sodipodi.sourceforge.net/DTD/sodipodi-0.dtd"
   xmlns="http://www.w3.org/2000/svg"
   xmlns:svg="http://www.w3.org/2000/svg">
  <defs
     id="defs1" />
  <sodipodi:namedview
     id="namedview1"
     pagecolor="#ffffff"
     bordercolor="#000000"
     borderopacity="0.25"
     inkscape:showpageshadow="2"
     inkscape:pageopacity="0.0"
     inkscape:pagecheckerboard="0"
     inkscape:deskcolor="#d1d1d1">
    <inkscape:page
       x="0"
       y="0"
       inkscape:label="1"
       id="page1"
       width="1313.88"
       height="504.86667"
       margin="0"
       bleed="0" />
  </sodipodi:namedview>
  <g
     id="g1"
     inkscape:groupmode="layer"
     inkscape:label="1">
    <g
       id="group-R5">
      <path
         id="path2"
         d="M 0,16.8711 V 1096.33 H 130.723 V 132.828 H 632.48 V 16.8711 H 0"
         style="fill:#6a7a6b;fill-opacity:1;fill-rule:nonzero;stroke:none"
         transform="matrix(0.13333333,0,0,-0.13333333,0,504.86667)" />
      <path
         id="path3"
         d="m 1157.47,0 c -78.01,0 -145.21,17.3008 -201.603,51.9102 -56.41,34.6211 -99.808,83.1208 -130.195,145.4878 -30.406,62.372 -45.602,135 -45.602,217.942 0,82.922 15.196,156.101 45.602,219.519 30.387,63.422 72.906,112.981 127.543,148.653 54.635,35.66 118.505,53.508 191.615,53.508 42.15,0 83.79,-7.04 124.92,-21.098 41.09,-14.043 78.51,-36.82 112.25,-68.25 33.73,-31.473 60.61,-73.012 80.64,-124.672 20.04,-51.629 30.05,-115.25 30.05,-190.789 V 379.5 H 868.621 V 487.02 H 1366.2 c 0,45.679 -9.06,86.449 -27.15,122.289 -18.1,35.839 -43.75,64.121 -76.96,84.851 -33.19,20.738 -72.31,31.11 -117.26,31.11 -49.56,0 -92.35,-12.219 -128.34,-36.649 C 980.445,664.199 952.793,632.512 933.469,593.488 914.121,554.5 904.461,512.68 904.461,468.051 v -71.68 c 0,-61.141 10.637,-112.871 31.887,-155.223 21.273,-42.347 50.882,-74.507 88.822,-96.457 37.94,-21.972 82.04,-32.941 132.3,-32.941 32.69,0 62.27,4.66 88.8,13.969 26.53,9.312 49.45,23.351 68.8,42.172 19.32,18.769 34.26,42.25 44.8,70.359 l 120.16,-33.738 C 1467.39,163.738 1446.12,128 1416.26,97.2617 1386.4,66.5 1349.51,42.6016 1305.59,25.5586 1261.64,8.53906 1212.28,0 1157.47,0"
         style="fill:#6a7a6b;fill-opacity:1;fill-rule:nonzero;stroke:none"
         transform="matrix(0.13333333,0,0,-0.13333333,0,504.86667)" />
      <path
         id="path4"
         d="M 2344.42,826.449 2045.06,16.8711 H 1918.55 L 1619.16,826.449 h 134.95 l 223.48,-645.117 h 8.43 l 223.48,645.117 h 134.92"
         style="fill:#6a7a6b;fill-opacity:1;fill-rule:nonzero;stroke:none"
         transform="matrix(0.13333333,0,0,-0.13333333,0,504.86667)" />
      <path
         id="path5"
         d="m 2848.31,0 c -78.01,0 -145.21,17.3008 -201.6,51.9102 -56.41,34.6211 -99.81,83.1208 -130.2,145.4878 -30.4,62.372 -45.6,135 -45.6,217.942 0,82.922 15.2,156.101 45.6,219.519 30.39,63.422 72.91,112.981 127.55,148.653 54.63,35.66 118.5,53.508 191.61,53.508 42.15,0 83.8,-7.04 124.92,-21.098 41.09,-14.043 78.51,-36.82 112.25,-68.25 33.73,-31.473 60.61,-73.012 80.64,-124.672 20.04,-51.629 30.06,-115.25 30.06,-190.789 V 379.5 h -624.08 v 107.52 h 497.58 c 0,45.679 -9.06,86.449 -27.15,122.289 -18.1,35.839 -43.75,64.121 -76.96,84.851 -33.19,20.738 -72.31,31.11 -117.26,31.11 -49.55,0 -92.35,-12.219 -128.34,-36.649 -36.04,-24.422 -63.7,-56.109 -83.02,-95.133 C 2604.96,554.5 2595.3,512.68 2595.3,468.051 v -71.68 c 0,-61.141 10.64,-112.871 31.89,-155.223 21.27,-42.347 50.88,-74.507 88.82,-96.457 37.95,-21.972 82.04,-32.941 132.3,-32.941 32.69,0 62.27,4.66 88.8,13.969 26.53,9.312 49.46,23.351 68.8,42.172 19.32,18.769 34.27,42.25 44.8,70.359 l 120.16,-33.738 C 3158.23,163.738 3136.96,128 3107.1,97.2617 3077.24,66.5 3040.35,42.6016 2996.43,25.5586 2952.48,8.53906 2903.12,0 2848.31,0"
         style="fill:#6a7a6b;fill-opacity:1;fill-rule:nonzero;stroke:none"
         transform="matrix(0.13333333,0,0,-0.13333333,0,504.86667)" />
      <path
         id="path6"
         d="M 3497.66,503.891 V 16.8711 H 3373.27 V 826.449 h 120.19 V 699.961 h 10.53 c 18.98,41.121 47.78,74.23 86.45,99.359 38.64,25.11 88.55,37.7 149.69,37.7 54.81,0 102.77,-11.168 143.89,-33.489 41.09,-22.301 73.08,-56.043 95.93,-101.191 22.83,-45.149 34.24,-102.16 34.24,-171.039 V 16.8711 H 3889.8 V 522.859 c 0,63.602 -16.52,113.231 -49.53,148.903 -33.04,35.66 -78.36,53.508 -136,53.508 -39.7,0 -75.09,-8.61 -106.2,-25.829 -31.11,-17.222 -55.61,-42.351 -73.53,-75.363 -17.92,-33.039 -26.88,-73.109 -26.88,-120.187"
         style="fill:#6a7a6b;fill-opacity:1;fill-rule:nonzero;stroke:none"
         transform="matrix(0.13333333,0,0,-0.13333333,0,504.86667)" />
      <path
         id="path7"
         d="M 5532.16,1096.33 V 16.8711 H 5405.67 L 4817.44,864.422 H 4806.9 V 16.8711 H 4676.2 V 1096.33 h 126.5 l 590.31,-849.65 h 10.56 v 849.65 h 128.59"
         style="fill:#6a7a6b;fill-opacity:1;fill-rule:nonzero;stroke:none"
         transform="matrix(0.13333333,0,0,-0.13333333,0,504.86667)" />
      <path
         id="path8"
         d="m 6105.63,111.75 c 55.51,0 101.19,14.219 137.03,42.699 35.84,28.461 62.37,65.879 79.59,112.25 17.22,46.379 25.82,96.641 25.82,150.75 0,54.11 -8.6,104.539 -25.82,151.262 -17.22,46.73 -43.75,84.519 -79.59,113.328 -35.84,28.813 -81.52,43.231 -137.03,43.231 -55.54,0 -101.21,-14.418 -137.05,-43.231 -35.85,-28.809 -62.37,-66.598 -79.59,-113.328 -17.22,-46.723 -25.83,-97.152 -25.83,-151.262 0,-54.109 8.61,-104.371 25.83,-150.75 17.22,-46.371 43.74,-83.789 79.59,-112.25 35.84,-28.48 81.51,-42.699 137.05,-42.699 z m 0,-111.75 c -73.11,0 -137.13,17.3984 -192.12,52.1914 -55.01,34.7891 -97.88,83.4376 -128.61,145.9886 -30.76,62.539 -46.13,135.652 -46.13,219.269 0,84.34 15.37,157.949 46.13,220.84 30.73,62.902 73.6,111.75 128.61,146.543 54.99,34.789 119.01,52.188 192.12,52.188 73.08,0 137.13,-17.399 192.11,-52.188 54.99,-34.793 97.86,-83.641 128.6,-146.543 30.76,-62.891 46.12,-136.5 46.12,-220.84 0,-83.617 -15.36,-156.73 -46.12,-219.269 C 6395.6,135.629 6352.73,86.9805 6297.74,52.1914 6242.76,17.3984 6178.71,0 6105.63,0"
         style="fill:#6a7a6b;fill-opacity:1;fill-rule:nonzero;stroke:none"
         transform="matrix(0.13333333,0,0,-0.13333333,0,504.86667)" />
      <path
         id="path9"
         d="m 7172.42,347.871 v 478.578 h 124.39 V 16.8711 H 7172.42 V 153.898 h -8.43 c -18.97,-41.089 -48.48,-75.9761 -88.55,-104.6167 -40.05,-28.6329 -90.65,-42.94146 -151.8,-42.94146 -50.6,0 -95.58,11.12896 -134.92,33.46096 -39.37,22.3008 -70.28,56.039 -92.78,101.2112 -22.48,45.129 -33.71,102.136 -33.71,171.019 v 514.418 h 124.38 V 320.461 c 0,-59.012 16.6,-106.121 49.81,-141.262 33.21,-35.14 75.64,-52.699 127.29,-52.699 30.91,0 62.45,7.898 94.61,23.719 32.14,15.82 59.19,40.07 81.16,72.73 21.95,32.692 32.94,74.34 32.94,124.922"
         style="fill:#6a7a6b;fill-opacity:1;fill-rule:nonzero;stroke:none"
         transform="matrix(0.13333333,0,0,-0.13333333,0,504.86667)" />
      <path
         id="path10"
         d="M 7524.52,16.8711 V 826.449 h 120.15 V 704.191 h 8.44 c 14.77,40.051 41.47,72.559 80.11,97.508 38.65,24.93 82.22,37.422 130.73,37.422 9.13,0 20.54,-0.18 34.26,-0.531 13.69,-0.352 24.05,-0.871 31.08,-1.57 V 710.5 c -4.2,1.051 -13.79,2.73 -28.7,5 -14.95,2.309 -30.66,3.43 -47.18,3.43 -39.37,0 -74.41,-8.16 -105.17,-24.5 -30.73,-16.34 -54.99,-38.821 -72.73,-67.481 -17.75,-28.629 -26.61,-61.211 -26.61,-97.75 V 16.8711 h -124.38"
         style="fill:#6a7a6b;fill-opacity:1;fill-rule:nonzero;stroke:none"
         transform="matrix(0.13333333,0,0,-0.13333333,0,504.86667)" />
      <path
         id="path11"
         d="M 8076.88,16.8711 V 826.449 h 124.39 V 16.8711 Z m 63.25,944.5269 c -24.25,0 -45.08,8.243 -62.47,24.762 -17.4,16.52 -26.08,36.39 -26.08,59.56 0,23.2 8.68,43.05 26.08,59.57 17.39,16.52 38.22,24.78 62.47,24.78 24.23,0 45.05,-8.26 62.44,-24.78 17.4,-16.52 26.11,-36.37 26.11,-59.57 0,-23.17 -8.71,-43.04 -26.11,-59.56 -17.39,-16.519 -38.21,-24.762 -62.44,-24.762"
         style="fill:#6a7a6b;fill-opacity:1;fill-rule:nonzero;stroke:none"
         transform="matrix(0.13333333,0,0,-0.13333333,0,504.86667)" />
      <path
         id="path12"
         d="M 9002.42,645.148 8890.67,613.52 c -7.03,18.621 -17.3,36.808 -30.84,54.558 -13.51,17.742 -31.88,32.414 -55.06,44.024 -23.2,11.589 -52.91,17.367 -89.1,17.367 -49.53,0 -90.72,-11.309 -123.59,-33.989 -32.86,-22.652 -49.28,-51.378 -49.28,-86.171 0,-30.93 11.24,-55.34 33.74,-73.258 22.48,-17.922 57.62,-32.86 105.42,-44.801 l 120.16,-29.531 c 72.38,-17.571 126.32,-44.348 161.83,-80.36 35.47,-36.039 53.24,-82.32 53.24,-138.91 0,-46.379 -13.29,-87.847 -39.8,-124.39 C 8950.84,81.5195 8913.87,52.7109 8866.44,31.6406 8818.99,10.5391 8763.83,0 8700.93,0 8618.34,0 8550.01,17.9219 8495.9,53.7617 8441.77,89.6016 8407.53,141.961 8393.11,210.84 l 118.06,29.512 c 11.26,-43.582 32.59,-76.243 64.05,-98.043 31.43,-21.797 72.65,-32.68 123.61,-32.68 57.96,0 104.09,12.391 138.35,37.16 34.27,24.781 51.39,54.563 51.39,89.352 0,28.109 -9.84,51.738 -29.51,70.879 -19.7,19.152 -49.91,33.492 -90.68,42.98 l -134.92,31.609 c -74.14,17.571 -128.52,44.903 -163.14,81.961 -34.61,37.071 -51.9,83.551 -51.9,139.41 0,45.668 12.91,86.09 38.74,121.231 25.83,35.141 61.14,62.719 105.94,82.75 44.8,20.019 95.66,30.059 152.57,30.059 80.14,0 143.11,-17.598 188.96,-52.711 45.88,-35.137 78.47,-81.547 97.79,-139.161"
         style="fill:#6a7a6b;fill-opacity:1;fill-rule:nonzero;stroke:none"
         transform="matrix(0.13333333,0,0,-0.13333333,0,504.86667)" />
      <path
         id="path13"
         d="M 9329.18,503.891 V 16.8711 H 9204.79 V 1096.33 h 124.39 V 699.961 h 10.54 c 18.97,41.82 47.53,75.109 85.67,99.891 38.12,24.777 88.98,37.168 152.57,37.168 55.16,0 103.49,-10.989 144.96,-32.969 41.45,-21.949 73.69,-55.512 96.71,-100.66 23,-45.153 34.52,-102.512 34.52,-172.09 V 16.8711 H 9729.76 V 522.859 c 0,64.301 -16.6,114.129 -49.81,149.45 -33.19,35.312 -79.14,52.961 -137.83,52.961 -40.77,0 -77.21,-8.61 -109.37,-25.829 -32.14,-17.222 -57.44,-42.351 -75.89,-75.363 -18.44,-33.039 -27.68,-73.109 -27.68,-120.187"
         style="fill:#6a7a6b;fill-opacity:1;fill-rule:nonzero;stroke:none"
         transform="matrix(0.13333333,0,0,-0.13333333,0,504.86667)" />
      <path
         id="path14"
         d="m 5026.94,1984 c -460.25,0 -638.23,371.38 -657.61,831.63 -1.29,51.18 -1.71,103.23 -1.18,155.38 0.11,18.53 23.13,26.45 35.02,12.31 149.17,-178.51 505.33,-271.24 778.61,-354.66 58.84,-17.81 107.91,-44.17 147.97,-78 85.47,-72.17 77.97,-206.76 -15.96,-267.5 -63.95,-41.36 -149.6,-66.57 -261.37,-69.56 h -25.05 c -0.75,0 -1.5,-0.11 -2.25,-0.22 -2.57,-0.43 -4.93,-1.5 -6.75,-3.1 -3,-2.57 -4.92,-6.32 -4.92,-10.61 0,-7.6 6.21,-13.92 13.92,-13.92 h 30.41 c 0.32,0 0.75,0 1.07,0.11 0.11,-0.11 0.21,0 0.21,0 1.72,-0.11 3.54,-0.11 5.46,-0.11 133.51,0 253.3,24.9 350.69,71.48 16.23,7.77 34.19,-7.73 28.56,-24.82 C 5395.7,2086.35 5270.99,1984 5026.94,1984 Z M 4371.9,3121.36 c 0.75,18.2 1.61,36.3 2.68,54.29 1.17,22.06 29.87,29.12 41.55,10.39 119.82,-191.47 472.13,-247.05 761.69,-335.61 139.08,-42.05 223.06,-132.09 262.52,-255.88 5.47,-17.14 -12.98,-32.24 -28.73,-23.53 -60.21,33.27 -125.76,59.07 -190.96,77.02 -305.62,80.31 -701.51,205.39 -827.33,395.46 -15.21,23.03 -22.49,50.34 -21.42,77.86 z m 23.51,242.18 c 1.41,14.74 13.15,27.43 27.95,27.98 8.48,0.32 17.17,-2.87 23.61,-9.95 143.6,-158.8 466.14,-212.88 734.81,-294.91 144.72,-43.77 230.29,-139.23 268.41,-270.35 6.09,-20.93 -16.8,-38.38 -35.76,-27.62 -62.08,35.27 -130.18,62.44 -197.95,81.12 -379.09,99.55 -849.16,199.08 -821.07,493.73 z m 825.24,-257.5 c -270.28,71 -586.18,142 -738.13,282.49 -34.38,31.81 -41.44,83.74 -17.24,123.79 95.84,159.02 234.41,251.01 503.62,251.01 367.51,0 588,-305.62 518.29,-529.96 -50.22,-166.31 189.54,-193.4 189.54,-7.71 0,282.38 -336.46,560.8 -707.83,560.8 -564.66,-3.85 -808.39,-386.79 -808.39,-901.23 0,-495.05 355.85,-928.32 901.23,-928.32 135.45,0 256.54,25.8 354.29,74.05 18.79,9.28 39.56,-8.45 32.87,-28.32 -47.58,-141.12 -166.91,-240.86 -396.48,-247.05 h -25.05 c -0.75,0 -1.5,-0.1 -2.25,-0.21 -2.57,-0.43 -4.93,-1.5 -6.75,-3.11 -3,-2.57 -4.92,-6.31 -4.92,-10.6 0,-7.6 6.21,-13.92 13.92,-13.92 h 30.41 c 0.32,0 0.75,0 1.07,0.11 0.11,-0.11 0.21,0 0.21,0 1.72,-0.11 3.54,-0.11 5.46,-0.11 354.78,0 612.21,175.62 612.21,467.96 0,41.66 -7.28,80.85 -20.56,117.47 8.46,33.95 12.85,69.93 12.85,107.95 0,33.3 -4.71,65 -13.39,95.09 13.82,42.3 21.1,88.24 21.1,137.5 0,234.19 -230.02,389.89 -456.08,452.32"
         style="fill:#6a7a6b;fill-opacity:1;fill-rule:nonzero;stroke:none"
         transform="matrix(0.13333333,0,0,-0.13333333,0,504.86667)" />
    </g>
  </g>
</svg>
