<?xml version="1.0" encoding="UTF-8" standalone="no"?>
<!-- Created with Inkscape (http://www.inkscape.org/) -->

<svg
   version="1.1"
   id="svg1"
   width="1276.3066"
   height="520.61334"
   viewBox="0 0 1276.3066 520.61334"
   sodipodi:docname="Leven Motion_color.eps"
   xmlns:inkscape="http://www.inkscape.org/namespaces/inkscape"
   xmlns:sodipodi="http://sodipodi.sourceforge.net/DTD/sodipodi-0.dtd"
   xmlns="http://www.w3.org/2000/svg"
   xmlns:svg="http://www.w3.org/2000/svg">
  <defs
     id="defs1" />
  <sodipodi:namedview
     id="namedview1"
     pagecolor="#ffffff"
     bordercolor="#000000"
     borderopacity="0.25"
     inkscape:showpageshadow="2"
     inkscape:pageopacity="0.0"
     inkscape:pagecheckerboard="0"
     inkscape:deskcolor="#d1d1d1">
    <inkscape:page
       x="0"
       y="0"
       inkscape:label="1"
       id="page1"
       width="1276.3066"
       height="520.61334"
       margin="0"
       bleed="0" />
  </sodipodi:namedview>
  <g
     id="g1"
     inkscape:groupmode="layer"
     inkscape:label="1">
    <g
       id="group-R5">
      <path
         id="path2"
         d="M 0,17.4414 V 1130.56 H 134.785 V 137.012 H 652.211 V 17.4414 H 0"
         style="fill:#af2f3d;fill-opacity:1;fill-rule:nonzero;stroke:none"
         transform="matrix(0.13333333,0,0,-0.13333333,0,520.61333)" />
      <path
         id="path3"
         d="m 933.387,502.301 c 2.301,38.699 12.101,75.301 29.199,109.699 19.902,40.301 48.404,73 85.604,98.102 37.1,25.199 81.2,37.796 132.3,37.796 46.4,0 86.7,-10.699 121,-32.097 34.2,-21.301 60.7,-50.5 79.3,-87.403 18.7,-37 28,-79 28,-126.097 z m 605.903,-56.602 c 0,77.903 -10.4,143.5 -31,196.801 -20.7,53.199 -48.4,96.102 -83.2,128.5 -34.8,32.398 -73.4,55.898 -115.8,70.398 -42.4,14.5 -85.3,21.801 -128.8,21.801 -75.3,0 -141.2,-18.398 -197.502,-55.199 -56.402,-36.801 -100.203,-87.898 -131.601,-153.301 -31.301,-65.398 -47,-140.898 -47,-226.398 0,-85.5 15.699,-160.403 47,-224.699 C 882.785,139.301 927.488,89.3008 985.688,53.6016 1043.79,17.8984 1113.09,0 1193.59,0 c 56.5,0 107.4,8.80078 152.7,26.3984 45.3,17.6016 83.3,42.2032 114.1,73.9026 30.8,31.699 52.8,68.597 65.8,110.597 l -123.9,34.801 c -10.9,-29 -26.3,-53.199 -46.2,-72.5 -19.9,-19.398 -43.6,-33.898 -70.9,-43.5 -27.4,-9.597 -57.9,-14.398 -91.6,-14.398 -51.8,0 -97.3,11.301 -136.4,33.898 -39.2,22.699 -69.702,55.801 -91.6,99.5 -19.902,39.602 -30.805,87.102 -32.602,142.699 h 606.302 v 54.301"
         style="fill:#af2f3d;fill-opacity:1;fill-rule:nonzero;stroke:none"
         transform="matrix(0.13333333,0,0,-0.13333333,0,520.61333)" />
      <path
         id="path4"
         d="M 2417.55,852.27 2108.84,17.4414 H 1978.39 L 1669.66,852.27 h 139.15 l 230.45,-665.239 h 8.69 l 230.46,665.239 h 139.14"
         style="fill:#af2f3d;fill-opacity:1;fill-rule:nonzero;stroke:none"
         transform="matrix(0.13333333,0,0,-0.13333333,0,520.61333)" />
      <path
         id="path5"
         d="m 2676.99,502.301 c 2.3,38.699 12.1,75.301 29.2,109.699 19.9,40.301 48.4,73 85.6,98.102 37.1,25.199 81.2,37.796 132.3,37.796 46.4,0 86.7,-10.699 120.9,-32.097 34.3,-21.301 60.7,-50.5 79.4,-87.403 18.7,-37 28,-79 28,-126.097 z m 605.8,-56.602 c 0,77.903 -10.3,143.5 -31,196.801 -20.6,53.199 -48.3,96.102 -83.1,128.5 -34.8,32.398 -73.4,55.898 -115.8,70.398 -42.4,14.5 -85.3,21.801 -128.8,21.801 -75.4,0 -141.2,-18.398 -197.6,-55.199 -56.3,-36.801 -100.1,-87.898 -131.5,-153.301 -31.3,-65.398 -47,-140.898 -47,-226.398 0,-85.5 15.7,-160.403 47,-224.699 31.4,-64.301 76.1,-114.3012 134.3,-150.0004 C 2787.39,17.8984 2856.69,0 2937.19,0 c 56.5,0 107.4,8.80078 152.7,26.3984 45.3,17.6016 83.3,42.2032 114.1,73.9026 30.8,31.699 52.7,68.597 65.8,110.597 l -123.9,34.801 c -10.9,-29 -26.3,-53.199 -46.2,-72.5 -20,-19.398 -43.6,-33.898 -71,-43.5 -27.3,-9.597 -57.8,-14.398 -91.5,-14.398 -51.9,0 -97.3,11.301 -136.5,33.898 -39.1,22.699 -69.6,55.801 -91.6,99.5 -19.9,39.602 -30.7,87.102 -32.5,142.699 h 606.2 v 54.301"
         style="fill:#af2f3d;fill-opacity:1;fill-rule:nonzero;stroke:none"
         transform="matrix(0.13333333,0,0,-0.13333333,0,520.61333)" />
      <path
         id="path6"
         d="M 3606.75,519.648 V 17.4414 H 3478.49 V 852.27 h 123.92 V 721.828 h 10.86 c 19.58,42.41 49.28,76.551 89.14,102.461 39.85,25.891 91.32,38.871 154.37,38.871 56.52,0 105.98,-11.512 148.37,-34.531 42.39,-23 75.36,-57.789 98.92,-104.348 23.55,-46.551 35.32,-105.351 35.32,-176.371 V 17.4414 H 4011.12 V 539.211 c 0,65.578 -17.03,116.758 -51.08,153.539 -34.06,36.77 -80.81,55.18 -140.24,55.18 -40.94,0 -77.43,-8.879 -109.51,-26.641 -32.07,-17.758 -57.34,-43.668 -75.82,-77.711 -18.48,-34.066 -27.72,-75.387 -27.72,-123.93"
         style="fill:#af2f3d;fill-opacity:1;fill-rule:nonzero;stroke:none"
         transform="matrix(0.13333333,0,0,-0.13333333,0,520.61333)" />
      <path
         id="path7"
         d="m 4822.04,1130.56 h 160.88 l 378.29,-923.97 h 13.04 l 378.29,923.97 h 160.89 V 17.4414 h -126.1 V 863.16 h -10.87 L 5428.6,17.4414 H 5306.86 L 4959.01,863.16 h -10.88 V 17.4414 H 4822.04 V 1130.56"
         style="fill:#af2f3d;fill-opacity:1;fill-rule:nonzero;stroke:none"
         transform="matrix(0.13333333,0,0,-0.13333333,0,520.61333)" />
      <path
         id="path8"
         d="m 6504.75,115.281 c 57.25,0 104.36,14.66 141.32,44.028 36.96,29.339 64.31,67.929 82.07,115.75 17.74,47.82 26.63,99.652 26.63,155.453 0,55.789 -8.89,107.797 -26.63,155.976 -17.76,48.192 -45.11,87.16 -82.07,116.864 -36.96,29.707 -84.07,44.578 -141.32,44.578 -57.25,0 -104.35,-14.871 -141.31,-44.578 -36.96,-29.704 -64.32,-68.672 -82.07,-116.864 -17.76,-48.179 -26.64,-100.187 -26.64,-155.976 0,-55.801 8.88,-107.633 26.64,-155.453 17.75,-47.821 45.11,-86.411 82.07,-115.75 36.96,-29.368 84.06,-44.028 141.31,-44.028 z m 0,-115.2419375 c -75.37,0 -141.4,17.9414375 -198.1,53.8125375 -56.72,35.8789 -100.93,86.0464 -132.62,150.5464 -31.72,64.493 -47.57,139.883 -47.57,226.114 0,86.968 15.85,162.867 47.57,227.726 31.69,64.864 75.9,115.242 132.62,151.114 56.7,35.867 122.73,53.808 198.1,53.808 75.36,0 141.41,-17.941 198.11,-53.808 56.71,-35.872 100.91,-86.25 132.62,-151.114 31.7,-64.859 47.56,-140.758 47.56,-227.726 0,-86.231 -15.86,-161.621 -47.56,-226.114 C 6803.77,139.898 6759.57,89.7305 6702.86,53.8516 6646.16,17.9805 6580.11,0.0390625 6504.75,0.0390625"
         style="fill:#af2f3d;fill-opacity:1;fill-rule:nonzero;stroke:none"
         transform="matrix(0.13333333,0,0,-0.13333333,0,520.61333)" />
      <path
         id="path9"
         d="m 7456.99,21.8008 c -8.7,-3.3008 -20.8,-6.6016 -36.4,-10.1016 -15.6,-3.39842 -35.3,-5.09764 -59.3,-5.09764 -36.2,0 -71.6,7.79684 -106.2,23.29684 -34.6,15.6016 -63.3,39.4024 -85.9,71.2036 -22.7,31.898 -34,72.097 -34,120.699 v 521.801 h -126.1 v 108.699 h 126.1 V 1052.3 h 128.3 V 852.301 h 178.3 V 743.602 h -178.3 v -487 c 0,-36.301 5.3,-63.301 16,-81.301 10.7,-17.903 24.5,-29.801 41.3,-35.801 16.9,-6 34.7,-9 53.6,-9 14.1,0 25.7,0.801 34.8,2.398 9,1.704 16.3,3 21.7,4.102 l 26.1,-115.1992"
         style="fill:#af2f3d;fill-opacity:1;fill-rule:nonzero;stroke:none"
         transform="matrix(0.13333333,0,0,-0.13333333,0,520.61333)" />
      <path
         id="path10"
         d="M 7635.26,17.4414 V 852.27 h 128.27 V 17.4414 Z m 65.22,973.9886 c -25,0 -46.47,8.492 -64.41,25.52 -17.93,17.04 -26.9,37.53 -26.9,61.43 0,23.92 8.97,44.39 26.9,61.42 17.94,17.04 39.41,25.55 64.41,25.55 25,0 46.47,-8.51 64.41,-25.55 17.93,-17.03 26.9,-37.5 26.9,-61.42 0,-23.9 -8.97,-44.39 -26.9,-61.43 -17.94,-17.028 -39.41,-25.52 -64.41,-25.52"
         style="fill:#af2f3d;fill-opacity:1;fill-rule:nonzero;stroke:none"
         transform="matrix(0.13333333,0,0,-0.13333333,0,520.61333)" />
      <path
         id="path11"
         d="m 8337.48,115.281 c 57.24,0 104.35,14.66 141.31,44.028 36.96,29.339 64.32,67.929 82.07,115.75 17.75,47.82 26.64,99.652 26.64,155.453 0,55.789 -8.89,107.797 -26.64,155.976 -17.75,48.192 -45.11,87.16 -82.07,116.864 -36.96,29.707 -84.07,44.578 -141.31,44.578 -57.26,0 -104.36,-14.871 -141.32,-44.578 -36.96,-29.704 -64.31,-68.672 -82.07,-116.864 -17.76,-48.179 -26.64,-100.187 -26.64,-155.976 0,-55.801 8.88,-107.633 26.64,-155.453 17.76,-47.821 45.11,-86.411 82.07,-115.75 36.96,-29.368 84.06,-44.028 141.32,-44.028 z m 0,-115.2419375 c -75.38,0 -141.41,17.9414375 -198.11,53.8125375 -56.72,35.8789 -100.93,86.0464 -132.62,150.5464 -31.72,64.493 -47.56,139.883 -47.56,226.114 0,86.968 15.84,162.867 47.56,227.726 31.69,64.864 75.9,115.242 132.62,151.114 56.7,35.867 122.73,53.808 198.11,53.808 75.36,0 141.4,-17.941 198.1,-53.808 56.72,-35.872 100.91,-86.25 132.62,-151.114 31.71,-64.859 47.57,-140.758 47.57,-227.726 0,-86.231 -15.86,-161.621 -47.57,-226.114 -31.71,-64.5 -75.9,-114.6675 -132.62,-150.5464 -56.7,-35.8711 -122.74,-53.8125375 -198.1,-53.8125375"
         style="fill:#af2f3d;fill-opacity:1;fill-rule:nonzero;stroke:none"
         transform="matrix(0.13333333,0,0,-0.13333333,0,520.61333)" />
      <path
         id="path12"
         d="M 9039.7,519.648 V 17.4414 H 8911.43 V 852.27 h 123.92 V 721.828 h 10.87 c 19.57,42.41 49.28,76.551 89.14,102.461 39.85,25.891 91.33,38.871 154.38,38.871 56.52,0 105.97,-11.512 148.37,-34.531 42.38,-23 75.36,-57.789 98.92,-104.348 23.54,-46.551 35.31,-105.351 35.31,-176.371 V 17.4414 H 9444.07 V 539.211 c 0,65.578 -17.03,116.758 -51.07,153.539 -34.07,36.77 -80.81,55.18 -140.25,55.18 -40.94,0 -77.44,-8.879 -109.52,-26.641 -32.06,-17.758 -57.33,-43.668 -75.81,-77.711 -18.48,-34.066 -27.72,-75.387 -27.72,-123.93"
         style="fill:#af2f3d;fill-opacity:1;fill-rule:nonzero;stroke:none"
         transform="matrix(0.13333333,0,0,-0.13333333,0,520.61333)" />
      <path
         id="path13"
         d="m 4889.15,2045.93 c -474.61,0 -658.14,382.95 -678.12,857.56 -1.33,52.78 -1.77,106.45 -1.22,160.22 0.11,19.11 23.85,27.28 36.11,12.7 153.82,-184.08 521.1,-279.7 802.9,-365.73 60.68,-18.36 111.27,-45.54 152.59,-80.43 88.13,-74.42 80.4,-213.21 -16.46,-275.84 -65.95,-42.65 -154.27,-68.64 -269.52,-71.73 h -25.84 c -0.77,0 -1.55,-0.11 -2.32,-0.22 -2.65,-0.45 -5.08,-1.55 -6.96,-3.21 -3.09,-2.65 -5.08,-6.51 -5.08,-10.93 0,-7.84 6.41,-14.35 14.36,-14.35 h 31.36 c 0.33,0 0.77,0 1.1,0.11 0.11,-0.11 0.22,0 0.22,0 1.77,-0.11 3.65,-0.11 5.64,-0.11 137.66,0 261.19,25.67 361.62,73.7 16.74,8.01 35.25,-7.96 29.45,-25.59 -49.57,-150.62 -178.17,-256.15 -429.83,-256.15 z m -675.47,1172.82 c 0.77,18.77 1.65,37.43 2.76,55.98 1.21,22.75 30.81,30.04 42.84,10.72 123.57,-197.44 486.87,-254.75 785.46,-346.07 143.41,-43.36 230.01,-136.22 270.71,-263.86 5.63,-17.68 -13.39,-33.25 -29.63,-24.27 -62.1,34.3 -129.69,60.92 -196.91,79.42 -315.16,82.82 -723.4,211.8 -853.15,407.8 -15.68,23.74 -23.19,51.9 -22.08,80.28 z m 24.24,249.73 c 1.45,15.21 13.56,28.3 28.82,28.86 8.74,0.32 17.71,-2.95 24.34,-10.26 148.08,-163.76 480.69,-219.52 757.74,-304.11 149.23,-45.13 237.47,-143.57 276.78,-278.78 6.28,-21.59 -17.32,-39.58 -36.87,-28.48 -64.02,36.37 -134.25,64.38 -204.13,83.65 -390.91,102.65 -875.64,205.29 -846.68,509.12 z m 850.99,-265.52 c -278.72,73.21 -604.47,146.42 -761.16,291.3 -35.45,32.8 -42.74,86.35 -17.78,127.65 98.83,163.98 241.72,258.84 519.33,258.84 378.97,0 606.34,-315.16 534.45,-546.5 -51.79,-171.48 195.46,-199.42 195.46,-7.95 0,291.2 -346.96,578.3 -729.91,578.3 -582.27,-3.97 -833.6,-398.85 -833.6,-929.34 0,-510.49 366.94,-957.27 929.33,-957.27 139.67,0 264.54,26.6 365.34,76.36 19.38,9.56 40.8,-8.72 33.89,-29.21 -49.05,-145.52 -172.11,-248.37 -408.83,-254.75 h -25.84 c -0.77,0 -1.55,-0.11 -2.32,-0.22 -2.65,-0.44 -5.08,-1.55 -6.96,-3.2 -3.09,-2.65 -5.08,-6.52 -5.08,-10.94 0,-7.84 6.41,-14.35 14.36,-14.35 h 31.36 c 0.33,0 0.77,0 1.1,0.11 0.11,-0.11 0.22,0 0.22,0 1.77,-0.11 3.65,-0.11 5.64,-0.11 365.83,0 631.3,181.1 631.3,482.56 0,42.95 -7.51,83.37 -21.21,121.13 8.73,35.01 13.25,72.11 13.25,111.31 0,34.34 -4.85,67.03 -13.8,98.06 14.25,43.62 21.76,90.99 21.76,141.78 0,241.5 -237.2,402.06 -470.3,466.44"
         style="fill:#af2f3d;fill-opacity:1;fill-rule:nonzero;stroke:none"
         transform="matrix(0.13333333,0,0,-0.13333333,0,520.61333)" />
    </g>
  </g>
</svg>
